<svg xmlns="http://www.w3.org/2000/svg" role="img" xmlns:xlink="http://www.w3.org/1999/xlink" viewBox="136.81 136.81 302.14 374.14"><style>svg {enable-background:new 0 0 595.28 595.28}</style><style>.st5{display:none;opacity:.4;clip-path:url(#SVGID_2_)}.st6{display:inline;fill:#fff}.st10,.st11{fill:none;stroke:#000;stroke-width:8;stroke-miterlimit:10}.st11{display:inline;stroke-width:4}</style><defs><path id="SVGID_1_" d="M144 414V234l144-90 144 90v180l-144 90z"/></defs><clipPath id="SVGID_2_"><use overflow="visible" xlink:href="#SVGID_1_"/></clipPath><g id="Cube_big" clip-path="url(#SVGID_2_)"><linearGradient id="SVGID_3_" x1="144" x2="288" y1="369" y2="369" gradientUnits="userSpaceOnUse"><stop offset="0" stop-color="#009fa9"/><stop offset="1" stop-color="#009fa9"/></linearGradient><path fill="url(#SVGID_3_)" d="M144 234l144 90v180l-144-90z"/><path fill="#4da7c4" d="M288 324l144-90-144-90-144 90z"/><path fill="#0080aa" d="M288 504V324l144-90v180z"/></g><g id="Cube_small_white" class="st5"><path d="M234 290.25L288 324v67.5l-54-33.75z" class="st6"/><path d="M288 324l54-33.75-54-33.75-54 33.75z" class="st6"/><path d="M288 391.5V324l54-33.75v67.5z" class="st6"/></g><g id="shape_lines" clip-path="url(#SVGID_2_)" opacity=".2"><path d="M144 414l144 90 144-90V234l-144-90-144 90z" class="st10"/><path d="M144 234l144 90 144-90M288 504V324" class="st10"/></g><g id="shape_lines_small" class="st5"><path d="M234 357.75l54 33.75 54-33.75v-67.5l-54-33.75-54 33.75z" class="st11"/><path d="M234 290.25L288 324l54-33.75M288 391.5V324" class="st11"/></g></svg>