<?xml version="1.0" encoding="iso-8859-1"?>
<!-- Generator: Adobe Illustrator 19.0.0, SVG Export Plug-In . SVG Version: 6.00 Build 0)  -->
<svg version="1.1" id="Capa_1" xmlns="http://www.w3.org/2000/svg" xmlns:xlink="http://www.w3.org/1999/xlink" x="0px" y="0px"
	 viewBox="0 0 511.999 511.999" style="enable-background:new 0 0 511.999 511.999;" xml:space="preserve">
<g>
	<g>
		<path d="M347.45,365.561h-9.957c-9.834,0-28.15-9.537-33.789-17.595L239.345,256l64.36-91.967
			c5.638-8.058,23.954-17.595,33.788-17.595h9.957v56.82l162.608-101.629L347.45,0v56.82h-9.957
			c-39.484,0-84.575,23.48-107.212,55.829l-45.627,65.2l-45.627-65.199C116.389,80.301,71.299,56.82,31.814,56.82H1.941v89.617
			h29.872c9.834,0,28.15,9.537,33.789,17.595l64.359,91.966l-64.359,91.967c-5.639,8.058-23.955,17.595-33.789,17.595H1.941v89.617
			h29.872c39.484,0,84.575-23.48,107.211-55.829l45.628-65.199l45.627,65.198c22.637,32.35,67.727,55.83,107.212,55.83h9.958v56.82
			L510.058,410.37L347.45,308.741V365.561z M254.756,129.777c16.907-24.159,53.249-43.084,82.737-43.084h39.83V53.897l76.372,47.733
			l-76.372,47.732v-32.797h-39.83c-19.727,0-46.952,14.177-58.262,30.339l-58.117,83.044L202.884,203.9L254.756,129.777z
			 M114.55,382.222c-16.907,24.159-53.249,43.084-82.737,43.084v-29.872c19.727,0,46.952-14.177,58.262-30.339l58.117-83.044
			l18.23,26.05L114.55,382.222z M377.323,458.104v-32.797h-39.83c-29.488,0-65.83-18.925-82.738-43.085L90.076,146.905
			c-11.31-16.161-38.535-30.339-58.262-30.339V86.693c29.488,0,65.83,18.925,82.738,43.085L279.23,365.094
			c11.31,16.161,38.536,30.339,58.262,30.339h39.83v-32.796l76.372,47.733L377.323,458.104z"/>
	</g>
</g>
<g>
</g>
<g>
</g>
<g>
</g>
<g>
</g>
<g>
</g>
<g>
</g>
<g>
</g>
<g>
</g>
<g>
</g>
<g>
</g>
<g>
</g>
<g>
</g>
<g>
</g>
<g>
</g>
<g>
</g>
</svg>
